<svg width="17" height="20" viewBox="0 0 17 20" fill="none" xmlns="http://www.w3.org/2000/svg">
<path d="M5.81801 19.0638C3.04326 19.0478 0.748047 13.3836 0.748047 10.499C0.748047 5.78691 4.28289 4.75531 5.64519 4.75531C6.25912 4.75531 6.91468 4.99641 7.49289 5.20975C7.89722 5.35858 8.31539 5.51221 8.54797 5.51221C8.68718 5.51221 9.01522 5.38152 9.30486 5.26685C9.92254 5.02095 10.6912 4.71533 11.5862 4.71533C11.5878 4.71533 11.59 4.71533 11.5915 4.71533C12.2599 4.71533 14.2863 4.86201 15.5045 6.69157L15.7899 7.12041L15.3792 7.43032C14.7925 7.87304 13.7219 8.68062 13.7219 10.2803C13.7219 12.1749 14.9344 12.9036 15.5168 13.254C15.7739 13.4087 16.0401 13.5682 16.0401 13.917C16.0401 14.1448 14.2222 19.0355 11.5825 19.0355C10.9365 19.0355 10.4799 18.8414 10.0772 18.6702C9.66968 18.4968 9.31815 18.3475 8.73728 18.3475C8.44284 18.3475 8.07051 18.4867 7.67634 18.6344C7.13767 18.8355 6.52796 19.0638 5.83614 19.0638H5.81801Z" fill="#6565EC"/>
<path d="M11.8658 0.420166C11.9346 2.89905 10.1618 4.61879 8.39109 4.51093C8.09931 2.5327 10.1616 0.420166 11.8658 0.420166Z" fill="#6565EC"/>
</svg>
