<svg width="23" height="23" viewBox="0 0 23 23" fill="none" xmlns="http://www.w3.org/2000/svg">
<path d="M16.9668 1.50732H6.9668C4.20537 1.50732 1.9668 3.7459 1.9668 6.50732V16.5073C1.9668 19.2687 4.20537 21.5073 6.9668 21.5073H16.9668C19.7282 21.5073 21.9668 19.2687 21.9668 16.5073V6.50732C21.9668 3.7459 19.7282 1.50732 16.9668 1.50732Z" fill="white" stroke="black" stroke-width="2" stroke-linecap="round" stroke-linejoin="round"/>
<path d="M15.9665 10.8774C16.0899 11.7096 15.9478 12.5596 15.5603 13.3064C15.1728 14.0532 14.5597 14.6588 13.8081 15.0371C13.0566 15.4153 12.205 15.547 11.3743 15.4133C10.5436 15.2796 9.77626 14.8875 9.18134 14.2925C8.58642 13.6976 8.19424 12.9303 8.06057 12.0996C7.92691 11.2689 8.05857 10.4173 8.43683 9.66576C8.81509 8.91424 9.42069 8.30112 10.1675 7.91362C10.9143 7.52612 11.7643 7.38397 12.5965 7.50738C13.4454 7.63327 14.2314 8.02885 14.8382 8.63569C15.445 9.24253 15.8406 10.0285 15.9665 10.8774Z" fill="white" stroke="black" stroke-width="2" stroke-linecap="round" stroke-linejoin="round"/>
<path d="M17.4668 6.00732H17.4768" stroke="black" stroke-width="2" stroke-linecap="round" stroke-linejoin="round"/>
</svg>
