<svg width="23" height="19" viewBox="0 0 23 19" fill="none" xmlns="http://www.w3.org/2000/svg">
<path d="M22.0488 0.517868C21.0912 1.19335 20.0309 1.70998 18.9088 2.04787C18.3066 1.35538 17.5062 0.86456 16.6159 0.641794C15.7256 0.419029 14.7883 0.475064 13.9309 0.802322C13.0735 1.12958 12.3373 1.71227 11.8218 2.47158C11.3064 3.2309 11.0365 4.1302 11.0488 5.04787V6.04787C9.29146 6.09344 7.5501 5.70368 5.97984 4.91331C4.40957 4.12295 3.05915 2.9565 2.04883 1.51787C2.04883 1.51787 -1.95117 10.5179 7.04883 14.5179C4.98936 15.9158 2.53598 16.6168 0.0488281 16.5179C9.04883 21.5179 20.0488 16.5179 20.0488 5.01787C20.0479 4.73932 20.0211 4.46146 19.9688 4.18787C20.9894 3.18136 21.7097 1.91058 22.0488 0.517868Z" fill="#1F1B1B"/>
</svg>
